<?xml version="1.0"?>
<svg xmlns:rdf="http://www.w3.org/1999/02/22-rdf-syntax-ns#" xmlns="http://www.w3.org/2000/svg" xmlns:cc="http://creativecommons.org/ns#" xmlns:dc="http://purl.org/dc/elements/1.1/" xmlns:svg="http://www.w3.org/2000/svg" id="svg5931" viewBox="0 0 256 256" version="1.1">
  <path id="rect3019-1-5" d="m84.094 0-84.094 161.12 0.375 0.04-0.375 0.68v75.1l171.94 19.06 84.06-161.12-15.656-1.7188v-43.969l15.66-30.13-171.91-19.062zm26.125 53.156 13.938 1.5312-6.3125 65.125-14.344-1.5938 1.6562-14.75-26.094-2.9062-12.781 13.562-14-1.5625 57.938-59.406zm126.62 2.75v53.281l-69.312 131.88v-61.344l4.4062 0.46875 64.906-124.28zm-127.41 12.5-20.875 22.125 17.844 1.9688 3.0312-24.094zm62.375 8.8125c1.4161 0.01804 2.9003 0.11142 4.4375 0.28125 5.5842 0.61706 9.393 1.7201 11.469 3.2812 2.0757 1.5612 3.1786 3.3761 3.2812 5.4375 0.1025 2.0615-1.2045 5.6653-3.9062 10.844l-7.4062 13.906c-2.067 3.9616-3.388 6.9177-3.9688 8.8438-0.58085 1.9261-0.88327 4.0092-0.90625 6.2812l-12.375-1.375c0.0866-0.82844 0.2882-2.0474 0.625-3.6562 0.16114-0.7304 0.25222-1.2013 0.28125-1.4375-3.1722 1.7445-6.2351 2.9662-9.1875 3.6875-2.9525 0.72128-5.8001 0.93023-8.5625 0.625-4.8714-0.53825-8.0382-2.2026-9.5312-5.0312s-1.2579-6.1828 0.75-10.031c1.3288-2.5468 3.1506-4.7399 5.4688-6.5938 2.3181-1.8538 4.9255-3.1932 7.7812-4 2.8557-0.80677 6.6561-1.3431 11.406-1.6562 6.3979-0.40042 10.958-0.93764 13.688-1.5938l0.625-1.1875c1.1958-2.2921 1.46-3.9862 0.78125-5.0938-0.67884-1.1075-2.6717-1.8544-5.9688-2.2188-2.2278-0.24612-4.1919-0.0094-5.875 0.6875-1.6831 0.69696-3.4477 2.0539-5.3125 4.0625l-10.32-3.221c3.5509-4.2166 7.4135-7.1881 11.625-8.9375 3.1586-1.312 6.8767-1.9604 11.125-1.9062zm-0.71875 25.562c-1.8698 0.33214-4.7181 0.67658-8.5625 1-3.8445 0.32346-6.4826 0.75153-7.9062 1.3125-2.2095 0.92311-3.7392 2.2397-4.625 3.9375-0.8711 1.6696-0.98465 3.2013-0.3125 4.5625 0.67208 1.3612 2.0114 2.1518 4.0312 2.375 2.2575 0.24944 4.7747-0.21783 7.5625-1.4062 2.0759-0.90791 3.7752-2.1211 5.0625-3.625 0.85821-0.98259 2.04-2.8919 3.5312-5.75l1.2188-2.4062zm-159 59.688 151 16.75v64.656l-151-16.594v-64.813z"/>
  <rect id="rect3761" y="161.12" width="1.0307" x=".09375" height="1.6677"/>
  <metadata>
    <rdf:RDF>
      <cc:Work>
        <dc:format>image/svg+xml</dc:format>
        <dc:type rdf:resource="http://purl.org/dc/dcmitype/StillImage"/>
        <cc:license rdf:resource="http://creativecommons.org/licenses/publicdomain/"/>
        <dc:publisher>
          <cc:Agent rdf:about="http://openclipart.org/">
            <dc:title>Openclipart</dc:title>
          </cc:Agent>
        </dc:publisher>
        <dc:title>Dictionary Pictogram</dc:title>
        <dc:date>2013-10-21T03:19:42</dc:date>
        <dc:description>This is a modified version.</dc:description>
        <dc:source>http://openclipart.org/detail/185246/dictionary-pictogram-by-libberry-185246</dc:source>
        <dc:creator>
          <cc:Agent>
            <dc:title>libberry</dc:title>
          </cc:Agent>
        </dc:creator>
        <dc:subject>
          <rdf:Bag>
            <rdf:li>book</rdf:li>
            <rdf:li>dictionary</rdf:li>
            <rdf:li>library</rdf:li>
          </rdf:Bag>
        </dc:subject>
      </cc:Work>
      <cc:License rdf:about="http://creativecommons.org/licenses/publicdomain/">
        <cc:permits rdf:resource="http://creativecommons.org/ns#Reproduction"/>
        <cc:permits rdf:resource="http://creativecommons.org/ns#Distribution"/>
        <cc:permits rdf:resource="http://creativecommons.org/ns#DerivativeWorks"/>
      </cc:License>
    </rdf:RDF>
  </metadata>
</svg>
